# xmcd
#
# Track frame offsets:
#	150
#	13676
#	25755
#	62067
#	92407
#	111635
#	131252
#	153255
#	170169
#	203511
#	216906
#	228001
#	238551
#	249376
#	259776
#	274856
#	301558
#	319843
#
# Disc length: 4489 seconds
#
# Revision: 1
# Processed by: cddbd v1.5.2PL0 Copyright (c) Steve Scherf et al.
# Submitted via: audiograbber 1.83.01
#
DISCID=e8118712
DTITLE=Various Artist - Philadelphia Soul Rarities, Vol. 1
DYEAR=2008
DGENRE=Rhythm and Blues
TTITLE0=No More Beautiful Days - Jimmy Randolph
TTITLE1=All That I Want - Jimmy Randolph
TTITLE2=Mama He Treat Your Daughter Mean - Barbara Cole
TTITLE3=Take Me Tonight - Barbara Mason
TTITLE4=L.O.V.E. Love - Dahlia
TTITLE5=What's This Hoodoo Voodoo - Dahlia
TTITLE6=We Are Gonna Rock This Place - Universal Love
TTITLE7=It's You Girl - Dennis Rodgers and Universal Love
TTITLE8=Moon Ride - Dennis Rodgers and Universal Love
TTITLE9=Rain - Sharon Paige
TTITLE10=Lies - Sharon Paige
TTITLE11=Keep On Believing - Unknown Artist
TTITLE12=Loving You Is An Every Day Thing - Joe Shamwell
TTITLE13=Unbelievable - The Larks
TTITLE14=Why Can't You Be Nice To Me - The 3 P's
TTITLE15=Brazilian Rock - Weldon A. McDougal III
TTITLE16=You Know I Know - Weldon A. McDougal III
TTITLE17=Sweet Memories - Lou Gordon
EXTD=
EXTT0=
EXTT1=
EXTT2=
EXTT3=
EXTT4=
EXTT5=
EXTT6=
EXTT7=
EXTT8=
EXTT9=
EXTT10=
EXTT11=
EXTT12=
EXTT13=
EXTT14=
EXTT15=
EXTT16=
EXTT17=
PLAYORDER=
